<?xml version="1.0" encoding="utf-8"?>
<!DOCTYPE svg PUBLIC "-//W3C//DTD SVG 1.1//EN" "http://www.w3.org/Graphics/SVG/1.1/DTD/svg11.dtd">
<svg xmlns="http://www.w3.org/2000/svg" xmlns:xlink="http://www.w3.org/1999/xlink" width="512px" version="1.1" height="512px" viewBox="0 0 64 64" enable-background="new 0 0 64 64">
  <g>
    <path fill="#4d4d4d" d="m5.554,9.605c0,0.097 0.031,0.185 0.037,0.281 0.006,0.032-0.006,0.061-0.002,0.092l.043,.216c0.031,0.263 0.068,0.523 0.145,0.774l9.064,47.83c0.106,0.564 0.45,1.055 0.942,1.349 0.37,0.22 6.328,3.687 15.402,3.687 4.62,0 10.05-0.899 15.957-3.583 0.595-0.27 1.02-0.812 1.142-1.453l9.064-47.83c0.076-0.251 0.111-0.511 0.146-0.774l.039-.216c0.008-0.031-0.004-0.061 0-0.092 0.006-0.096 0.035-0.184 0.035-0.281 0-0.117-0.035-0.222-0.043-0.337-0.006-0.04-0.006-0.081-0.016-0.121-0.619-6.266-13.72-9.135-25.946-9.135-12.228-4.54498e-16-25.328,2.869-25.951,9.136-0.008,0.04-0.008,0.081-0.014,0.121-0.009,0.114-0.044,0.219-0.044,0.336zm38.987,47.408c-13.017,5.509-23.131,1.469-25.939,0.093l-7.854-41.452c5.068,2.404 13.116,3.543 20.815,3.543s15.747-1.139 20.814-3.543l-7.836,41.359zm-12.978-52.99c14.3-3.55271e-15 21.76,3.795 21.976,5.502l-.082,.441c-0.927,1.811-8.344,5.22-21.894,5.22s-20.968-3.409-21.893-5.22l-.084-.441c0.216-1.707 7.676-5.502 21.977-5.502z"/>
  </g>
</svg>
